# xmcd
#
# Track frame offsets: 
#        150
#        14945
#        30705
#        42347
#        55395
#        66730
#        81112
#        94812
#        114457
#        125372
#        136937
#        149742
#        167737
#        186635
#        216137
#        233625
#        248915
#        286405
#
# Disc length: 3994 seconds
#
# Revision: 0
# Processed by: cddbd v1.5.2PL0 Copyright (c) Steve Scherf et al.
# Submitted via: ExactAudioCopy v0.99pb5
#
DISCID=1d0f9812
DTITLE=Johnny Cash - Reader's Digest - Greatest Hits and Singles and P
DTITLE=reviously Unreleased
DYEAR=2010
DGENRE=Country
TTITLE0=Southwind
TTITLE1=The Devil To Pay
TTITLE2='Cause I Love You
TTITLE3=See Ruby Fall
TTITLE4=Route #1, Box 144
TTITLE5=Sing A Traveling Song
TTITLE6=If I Were A Carpenter
TTITLE7=To Bea The Devil
TTITLE8=Blistered
TTITLE9=Wrinkled,Crinkled, Wadded Dollar Bill
TTITLE10=I've Got A Thing About Trains
TTITLE11=Jesus Was A Carpenter
TTITLE12=Sunday Mornin' Comin' Down
TTITLE13=Come Along And Ride This Train: Six Days On The Road - There 
TTITLE13=Ain't No Easy Run - Sailor On A Concrete Sea
TTITLE14=These Hands
TTITLE15=I'm Gonna Try To Be That Way
TTITLE16=Come Along And Ride This Train: Mississippi Delta Land/Detroi
TTITLE16=t City - Uncloudy Day - No Setting Sun - Mississippi Delta La
TTITLE16=nd
TTITLE17=Here Was A Man
EXTD=
EXTT0=
EXTT1=
EXTT2=
EXTT3=
EXTT4=
EXTT5=
EXTT6=
EXTT7=
EXTT8=
EXTT9=
EXTT10=
EXTT11=
EXTT12=
EXTT13=
EXTT14=
EXTT15=
EXTT16=
EXTT17=
PLAYORDER=
